<?xml version="1.0" standalone="no"?>
<!DOCTYPE svg PUBLIC "-//W3C//DTD SVG 20010904//EN"
 "http://www.w3.org/TR/2001/REC-SVG-20010904/DTD/svg10.dtd">
<svg version="1.0" xmlns="http://www.w3.org/2000/svg"
 width="850.000000pt" height="850.000000pt" viewBox="0 0 850.000000 850.000000"
 preserveAspectRatio="xMidYMid meet">
<metadata>
Created by potrace 1.14, written by Peter Selinger 2001-2017
</metadata>
<g transform="translate(0.000000,850.000000) scale(0.100000,-0.100000)"
fill="#000000" stroke="none">
<path d="M5504 5895 c-57 -137 80 -334 222 -321 45 4 64 17 64 44 0 19 -35 84
-61 113 -13 14 -46 51 -72 82 -70 82 -107 117 -123 117 -8 0 -22 -16 -30 -35z"/>
<path d="M5315 5817 c-37 -36 -68 -106 -80 -177 -11 -71 -47 -124 -102 -152
-45 -22 -59 -23 -253 -24 -113 -1 -218 -4 -235 -7 -87 -16 -122 -28 -138 -48
-17 -21 -17 -23 0 -52 26 -43 116 -102 201 -131 96 -33 204 -32 275 3 38 19
55 35 86 89 46 78 78 113 131 147 37 23 113 49 178 60 105 18 130 116 61 244
-25 49 -59 81 -85 81 -3 0 -20 -15 -39 -33z"/>
<path d="M5063 5738 c-23 -11 -75 -46 -115 -77 -61 -48 -73 -61 -73 -86 0 -37
40 -59 105 -58 72 1 113 16 159 57 41 37 59 109 38 151 -21 41 -52 45 -114 13z"/>
<path d="M5769 5468 c-15 -13 -37 -42 -49 -65 -35 -65 -90 -66 -191 -4 -112
70 -228 55 -314 -40 -70 -78 -70 -140 1 -220 105 -118 97 -158 -45 -225 -113
-53 -155 -99 -160 -176 -4 -58 32 -123 107 -197 206 -199 578 -248 737 -97 65
61 83 127 54 198 -29 74 -88 136 -192 204 -76 50 -136 107 -138 132 -4 45 3
68 33 107 69 90 147 107 279 60 124 -45 141 -48 244 -49 111 0 123 2 178 28
47 23 77 60 77 96 0 26 -28 72 -60 97 -20 16 -152 80 -204 99 -22 9 -50 19
-61 24 -80 32 -117 41 -205 47 -57 4 -68 1 -91 -19z"/>
<path d="M4023 5314 c-32 -27 -34 -63 -8 -128 70 -173 304 -369 491 -412 66
-15 196 -13 238 3 84 34 116 105 85 195 -43 128 -240 243 -556 324 -139 36
-222 42 -250 18z"/>
<path d="M2720 5094 c-30 -8 -56 -19 -58 -24 -2 -6 -9 -10 -16 -10 -17 0 -81
-63 -110 -108 -37 -60 -49 -116 -52 -246 -1 -66 -6 -121 -12 -125 -6 -3 -47
-6 -91 -6 l-82 0 3 -44 3 -44 88 2 c78 2 87 0 88 -16 2 -41 1 -379 -1 -388 -1
-5 -2 -14 0 -20 1 -5 2 -114 2 -242 0 -166 3 -233 11 -235 7 -2 30 -3 52 -3
l40 0 2 390 c1 215 2 418 3 453 l0 62 96 0 95 0 -3 43 -3 42 -85 0 c-47 0 -90
3 -95 7 -11 7 -11 99 0 197 10 99 60 177 130 207 48 20 156 20 219 0 27 -8 52
-13 56 -11 11 7 8 84 -4 94 -19 16 -119 39 -171 40 -27 0 -75 -7 -105 -15z"/>
<path d="M3160 5008 c-4 -559 1 -1363 7 -1369 12 -11 100 -39 158 -50 259 -51
457 -7 593 132 109 112 168 306 141 464 -4 22 -9 55 -12 72 -6 41 -55 139 -93
187 -35 45 -143 117 -203 136 -66 21 -204 17 -276 -9 -62 -22 -157 -81 -187
-116 -10 -11 -18 -15 -19 -10 -1 6 -2 152 -3 325 l-1 315 -52 3 -53 3 0 -83z
m538 -512 c34 -7 108 -52 138 -84 69 -72 104 -159 111 -278 14 -224 -124 -409
-339 -455 -67 -15 -205 -6 -283 18 l-60 19 0 303 1 304 54 49 c125 113 247
153 378 124z"/>
<path d="M6455 5008 c-291 -24 -423 -153 -345 -337 60 -138 282 -245 505 -243
50 0 110 6 135 12 25 6 52 12 60 12 8 0 21 5 28 11 6 5 12 7 12 4 0 -4 36 12
80 34 139 70 226 169 234 265 7 70 -30 122 -111 159 -152 70 -375 101 -598 83z"/>
<path d="M1753 4568 c-134 -20 -239 -92 -289 -201 -47 -104 -33 -245 34 -338
34 -47 114 -106 163 -121 l39 -11 -67 -32 c-105 -50 -139 -92 -128 -158 6 -40
59 -89 116 -107 l42 -14 -29 -8 c-16 -4 -40 -9 -55 -12 -63 -10 -157 -74 -184
-127 -28 -53 -23 -164 10 -208 44 -59 111 -103 195 -129 46 -14 336 -25 355
-14 6 4 19 8 30 9 49 7 140 51 179 88 55 51 79 105 82 182 3 50 -2 71 -24 114
-53 104 -132 137 -367 154 -205 15 -243 30 -249 98 -5 51 33 83 134 113 47 14
112 35 145 45 33 10 65 19 70 20 6 0 17 6 25 13 8 6 28 18 44 26 100 51 163
214 131 340 -11 44 -41 110 -54 120 -4 3 -19 21 -35 40 l-29 35 108 5 108 5 0
40 0 40 -224 0 c-123 0 -247 -3 -276 -7z m170 -112 c57 -33 92 -72 117 -128
43 -98 21 -215 -53 -288 -126 -123 -338 -92 -417 60 -16 31 -36 104 -33 120 0
3 3 27 6 53 12 95 86 178 187 207 49 15 149 2 193 -24z m13 -930 c109 -12 166
-42 195 -103 35 -73 13 -143 -59 -189 -74 -48 -136 -63 -258 -63 -185 1 -285
36 -323 115 -20 42 -21 97 -1 134 30 56 121 96 240 107 36 3 66 6 67 7 4 3 83
-1 139 -8z"/>
<path d="M4305 4572 c-3 -3 -5 -226 -5 -497 l0 -491 48 2 c26 1 50 2 53 3 3 0
5 223 5 493 l-1 493 -47 1 c-26 0 -50 -1 -53 -4z"/>
<path d="M4854 4498 c-135 -104 -207 -261 -200 -437 5 -110 10 -131 51 -213
37 -73 41 -79 95 -136 29 -31 130 -102 144 -102 3 0 17 -5 33 -12 73 -30 165
-39 257 -25 64 9 183 58 226 92 35 28 110 107 110 116 0 4 6 14 13 21 18 19
45 84 62 147 14 53 17 233 4 245 -3 4 -32 9 -63 11 -55 5 -57 4 -51 -15 14
-45 13 -169 -1 -226 -28 -107 -107 -204 -203 -252 -66 -32 -69 -32 -148 -39
-235 -19 -430 179 -417 423 5 86 19 134 61 209 24 44 116 135 136 135 6 0 -9
18 -32 40 -23 22 -43 40 -44 40 -2 0 -16 -10 -33 -22z"/>
<path d="M6496 4261 c-3 -5 62 -164 108 -266 8 -16 26 -59 40 -95 15 -36 33
-77 42 -92 8 -15 15 -31 16 -35 1 -10 23 -63 59 -141 16 -35 33 -61 38 -57 6
3 17 20 25 38 48 108 266 635 266 643 0 5 -20 10 -44 10 -53 0 -38 24 -152
-246 -108 -256 -100 -242 -114 -205 -7 17 -16 39 -21 50 -5 11 -42 97 -82 190
-94 219 -86 208 -136 210 -23 1 -43 -1 -45 -4z"/>
<path d="M6095 4028 c-84 -30 -135 -106 -140 -209 -6 -101 37 -183 116 -224
40 -21 58 -24 125 -21 59 3 88 9 117 26 33 20 37 26 37 64 l0 43 -50 -25 c-60
-29 -128 -33 -183 -9 -29 12 -43 27 -58 62 -11 26 -18 50 -14 53 4 4 75 7 158
7 l152 1 -1 46 c0 55 -36 132 -73 157 -58 39 -129 50 -186 29z m141 -102 c19
-19 34 -43 34 -55 0 -20 -5 -21 -115 -21 l-115 0 11 27 c21 56 58 81 118 82
25 1 41 -7 67 -33z"/>
<path d="M6459 3669 c-24 -24 -24 -61 -1 -82 42 -39 108 -6 98 48 -3 16 -10
33 -15 38 -18 18 -62 16 -82 -4z"/>
<path d="M7042 3674 c-43 -30 -17 -104 36 -104 35 0 65 37 57 68 -3 15 -10 31
-14 35 -15 16 -58 16 -79 1z"/>
</g>
</svg>
